HIERARCHY
ROOT Hips
{
	OFFSET	0.00	0.00	0.00
	CHANNELS 6 Xposition Yposition Zposition Zrotation Xrotation Yrotation
	JOINT LeftUpLeg
	{
		OFFSET	 0.126116	-0.014019	-0.065224
		CHANNELS 3 Zrotation Xrotation Yrotation
		JOINT LeftLeg
		{
			OFFSET	 0.000000	 0.000000	 0.569914
			CHANNELS 3 Zrotation Xrotation Yrotation
			JOINT LeftFoot
			{
				OFFSET	 0.000000	 0.000000	 0.544423
				CHANNELS 3 Zrotation Xrotation Yrotation
				JOINT LeftToeBase
				{
					OFFSET	 0.000000	 0.000000	 0.207117
					CHANNELS 3 Zrotation Xrotation Yrotation
					End Site
					{
						OFFSET	 0.000000	 0.000000	 0.207117
					}
				}
			}
		}
	}
	JOINT RightUpLeg
	{
		OFFSET	-0.124023	-0.008373	-0.065224
		CHANNELS 3 Zrotation Xrotation Yrotation
		JOINT RightLeg
		{
			OFFSET	 0.000000	 0.000000	 0.570047
			CHANNELS 3 Zrotation Xrotation Yrotation
			JOINT RightFoot
			{
				OFFSET	 0.000000	 0.000000	 0.544354
				CHANNELS 3 Zrotation Xrotation Yrotation
				JOINT RightToeBase
				{
					OFFSET	 0.000000	 0.000000	 0.207540
					CHANNELS 3 Zrotation Xrotation Yrotation
					End Site
					{
						OFFSET	 0.000000	 0.000000	 0.207540
					}
				}
			}
		}
	}
	JOINT Spine
	{
		OFFSET	 0.000184	-0.007763	 0.117403
		CHANNELS 3 Zrotation Xrotation Yrotation
		JOINT Spine1
		{
			OFFSET	 0.000000	 0.000000	 0.137269
			CHANNELS 3 Zrotation Xrotation Yrotation
			JOINT Spine2
			{
				OFFSET	 0.000000	 0.000000	 0.156879
				CHANNELS 3 Zrotation Xrotation Yrotation
				JOINT LeftShoulder
				{
					OFFSET	 0.080501	-0.002496	 0.160144
					CHANNELS 3 Zrotation Xrotation Yrotation
					JOINT LeftArm
					{
						OFFSET	 0.000000	 0.000000	 0.164363
						CHANNELS 3 Zrotation Xrotation Yrotation
						JOINT LeftForeArm
						{
							OFFSET	 0.000000	 0.000000	 0.364576
							CHANNELS 3 Zrotation Xrotation Yrotation
							JOINT LeftHand
							{
								OFFSET	 0.000000	 0.000000	 0.360812
								CHANNELS 3 Zrotation Xrotation Yrotation
								JOINT LeftHandIndex1
								{
									OFFSET	 0.000000	 0.000000	 0.086006
									CHANNELS 3 Zrotation Xrotation Yrotation
									JOINT LeftHandIndex2
									{
										OFFSET	 0.000000	 0.000000	 0.047236
										CHANNELS 3 Zrotation Xrotation Yrotation
										JOINT LeftHandIndex3
										{
											OFFSET	-0.004284	-0.000551	 0.038166
											CHANNELS 3 Zrotation Xrotation Yrotation
											End Site
											{
												OFFSET	-0.004284	-0.000551	 0.038166
											}
										}
									}
								}
							}
						}
					}
				}
				JOINT Neck
				{
					OFFSET	 0.000000	 0.000000	 0.176489
					CHANNELS 3 Zrotation Xrotation Yrotation
					JOINT Head
					{
						OFFSET	 0.000000	-0.001747	 0.077940
						CHANNELS 3 Zrotation Xrotation Yrotation
						End Site
						{
							OFFSET	 0.000000	-0.001747	 0.077940
						}
					}
				}
				JOINT RightShoulder
				{
					OFFSET	-0.080363	 0.000306	 0.159706
					CHANNELS 3 Zrotation Xrotation Yrotation
					JOINT RightArm
					{
						OFFSET	 0.000000	 0.000000	 0.164196
						CHANNELS 3 Zrotation Xrotation Yrotation
						JOINT RightForeArm
						{
							OFFSET	 0.000000	 0.000000	 0.365611
							CHANNELS 3 Zrotation Xrotation Yrotation
							JOINT RightHand
							{
								OFFSET	 0.000000	 0.000000	 0.360648
								CHANNELS 3 Zrotation Xrotation Yrotation
								JOINT RightHandIndex1
								{
									OFFSET	 0.000000	 0.000000	 0.069977
									CHANNELS 3 Zrotation Xrotation Yrotation
									JOINT RightHandIndex2
									{
										OFFSET	 0.000000	 0.000000	 0.052305
										CHANNELS 3 Zrotation Xrotation Yrotation
										JOINT RightHandIndex3
										{
											OFFSET	 0.009002	-0.000782	 0.042196
											CHANNELS 3 Zrotation Xrotation Yrotation
											End Site
											{
												OFFSET	 0.009002	-0.000782	 0.042196
											}
										}
									}
								}
							}
						}
					}
				}
			}
		}
	}
}
MOTION
Frames:    10
Frame Time: 0.03333334
-0.044600	 0.238801	 1.008755	 1.339622	 34.478600	-6.622160	-48.537430	-85.366840	 134.662000	 8.924235	-76.584580	 9.090214	-40.070430	 78.713250	 47.789050	-2.385832	 28.452790	-0.000001	 92.979750	-75.541430	-97.485880	-22.668800	-79.055380	-17.222820	 64.002810	 76.104970	-59.580750	 2.384659	 28.388700	-0.000001	-1.698430	 15.541650	 1.423229	-2.832955	 23.179110	 3.697988	-0.216272	-1.527423	 1.967107	-99.091950	 68.192960	 157.020800	 10.043440	-4.181331	-45.398070	-6.089869	 9.188982	-28.176520	-23.030110	-16.052970	-17.821960	-2.027600	 6.559038	 9.033609	-5.188889	 0.308190	 3.541030	-5.234859	 0.342567	 0.430617	 0.171710	 16.593870	-5.536378	 1.439874	-25.747790	-0.303224	 97.384930	 64.620280	-159.280000	-5.038759	 4.872719	 53.704860	-6.588915	 0.534364	 26.695130	 7.438586	-14.869470	 13.799070	 1.803333	 3.979147	-15.098590	 4.898592	 3.004813	-9.310344	 5.224449	 0.395017	 2.014677
-0.044367	 0.237896	 1.020100	 1.169033	 33.503950	-6.093463	-41.023510	-83.365400	 142.541100	 7.771080	-75.201160	 7.919534	-38.726440	 78.244030	 46.232580	-2.385832	 28.452790	-0.000001	 84.767660	-75.600400	-105.851400	-21.032710	-77.569340	-15.532180	 60.974720	 75.987920	-56.293570	 2.384659	 28.388700	-0.000001	-1.533476	 15.731540	 1.296028	-2.525834	 24.062890	 3.284611	-0.302492	-2.841221	 1.709774	-98.603200	 68.653240	 157.843500	 9.606606	-1.757960	-46.594620	-5.677662	 9.148641	-28.709630	-23.765090	-16.769380	-18.567630	-2.027600	 6.559038	 9.033609	-5.188889	 0.308190	 3.541030	-5.234859	 0.342567	 0.430617	-0.399234	 12.085020	-4.314768	 1.010576	-21.305180	-0.997731	 97.122830	 64.226570	-160.298600	-5.673820	 4.494871	 54.462840	-6.082102	 0.804736	 27.141850	 7.301064	-15.140000	 15.109180	 1.803333	 3.979147	-15.098590	 4.898592	 3.004813	-9.310344	 5.224449	 0.395017	 2.014677
-0.043721	 0.237416	 1.032308	 0.992960	 32.460250	-5.588579	-36.183090	-81.210830	 147.749700	 6.852586	-73.635120	 6.977598	-37.311260	 77.731800	 44.539460	-2.385832	 28.452790	-0.000001	 76.069750	-75.291690	-114.672600	-19.669640	-75.900310	-14.103530	 57.928810	 75.800250	-52.977150	 2.384659	 28.388700	-0.000001	-1.462057	 15.952500	 1.201873	-2.262037	 24.709490	 2.941023	-0.403162	-4.121271	 1.445452	-97.915990	 69.558460	 158.642000	 9.599418	 1.006285	-47.792620	-5.264211	 9.051904	-29.115080	-24.613930	-17.823240	-19.642230	-2.027600	 6.559038	 9.033609	-5.188889	 0.308190	 3.541030	-5.234859	 0.342567	 0.430617	-0.795248	 7.253091	-3.252029	 0.655795	-16.607730	-1.662994	 96.827850	 64.210620	-161.053400	-6.351394	 4.821787	 54.865590	-6.004922	 0.865558	 27.719950	 7.149289	-15.556730	 16.057620	 1.803333	 3.979147	-15.098590	 4.898592	 3.004813	-9.310344	 5.224449	 0.395017	 2.014677
-0.042478	 0.237427	 1.045920	 0.800888	 31.234010	-5.027177	-32.527320	-78.768990	 151.786700	 6.154716	-71.855800	 6.247162	-35.774750	 77.194140	 42.654440	-2.385833	 28.452760	 0.000004	 66.739150	-74.518840	-124.127100	-18.576620	-73.982890	-12.926810	 54.936990	 75.543040	-49.635600	 2.384659	 28.388700	-0.000001	-1.458720	 16.210860	 1.094698	-2.015812	 25.215850	 2.608051	-0.504073	-5.461497	 1.180563	-96.923540	 71.071430	 159.451700	 10.129450	 4.472500	-49.288190	-4.835335	 8.871941	-29.336280	-25.717570	-19.320910	-20.972380	-2.027600	 6.559038	 9.033609	-5.188889	 0.308190	 3.541030	-5.234859	 0.342567	 0.430617	-1.076727	 1.902824	-2.384991	 0.402540	-11.441350	-2.192875	 96.381540	 64.777570	-161.719500	-7.272763	 6.111179	 55.165700	-6.219994	 0.777902	 28.512360	 7.175138	-16.506950	 16.859490	 1.803333	 3.979147	-15.098590	 4.898592	 3.004813	-9.310344	 5.224449	 0.395017	 2.014677
-0.040301	 0.238292	 1.062787	 0.603036	 29.746940	-4.367314	-29.328530	-75.803670	 155.394700	 5.734482	-69.528040	 5.765254	-33.784690	 76.525220	 40.135350	-2.385833	 28.452760	 0.000004	 56.661960	-73.043070	-134.288800	-17.603820	-71.460840	-11.829770	 51.573020	 75.127720	-45.765840	 2.384659	 28.388700	-0.000001	-1.498641	 16.536140	 0.950929	-1.743093	 25.619270	 2.186544	-0.585423	-6.879490	 0.977421	-95.313650	 73.661200	 160.168000	 11.357350	 9.056134	-51.543710	-4.369331	 8.595782	-29.359280	-27.258640	-21.441130	-22.428960	-2.027600	 6.559038	 9.033609	-5.188889	 0.308190	 3.541030	-5.234859	 0.342567	 0.430617	-1.318088	-3.973032	-2.148261	 0.336197	-5.759137	-2.210603	 95.543190	 66.380580	-162.554900	-8.470449	 8.723015	 55.834740	-6.631809	 0.576561	 29.481560	 7.631137	-18.588940	 17.675240	 1.803333	 3.979147	-15.098590	 4.898592	 3.004813	-9.310344	 5.224449	 0.395017	 2.014677
-0.037394	 0.238567	 1.081328	 0.542863	 28.094850	-3.712090	-26.998370	-72.467780	 158.275200	 5.562533	-66.891730	 5.502414	-31.403410	 75.754020	 37.106880	-2.385833	 28.452750	 0.000004	 47.676790	-70.802350	-143.343000	-15.195820	-68.759070	-9.379388	 48.231270	 74.671490	-42.433950	 2.384659	 28.388700	-0.000001	-1.604016	 16.789800	 0.746556	-1.523984	 25.915260	 1.710809	-0.643734	-8.353155	 0.853848	-93.589390	 76.173810	 160.845200	 13.369960	 13.054190	-53.829130	-3.828220	 8.335391	-29.559330	-28.624440	-23.934950	-24.004560	-2.027600	 6.559038	 9.033609	-5.188889	 0.308190	 3.541030	-5.234859	 0.342567	 0.430617	-1.555671	-10.375720	-2.459017	 0.312117	 0.336659	-1.931162	 94.674050	 68.091450	-163.397800	-10.072310	 11.318240	 56.277370	-6.971461	 0.407531	 30.927410	 8.267908	-21.176000	 18.255410	 1.803333	 3.979147	-15.098590	 4.898592	 3.004813	-9.310344	 5.224449	 0.395017	 2.014677
-0.032570	 0.236274	 1.105220	 0.935480	 26.368800	-3.077826	-24.838840	-68.508960	 161.269500	 5.300971	-63.335180	 5.098887	-27.454550	 74.776950	 32.510060	-2.385833	 28.452750	 0.000004	 39.695450	-67.501240	-151.190100	-12.567830	-65.279650	-6.748025	 44.930070	 73.878050	-39.118930	 2.384659	 28.388700	-0.000001	-1.645416	 16.345720	 0.158492	-1.434090	 25.965190	 1.126911	-0.659427	-10.011450	 0.571880	-93.502130	 76.085050	 162.344000	 15.708070	 15.448040	-53.652510	-2.909803	 8.438484	-31.592740	-29.673050	-26.983270	-26.056650	-2.027600	 6.559038	 9.033609	-5.188889	 0.308190	 3.541030	-5.234859	 0.342567	 0.430617	-1.669195	-13.875980	-1.706641	 0.269166	 3.716583	-2.303201	 93.989220	 69.268420	-164.326600	-12.115220	 14.029310	 55.273950	-7.378835	 0.182860	 33.851670	 9.013911	-24.469980	 18.891400	 1.803333	 3.979147	-15.098590	 4.898592	 3.004813	-9.310344	 5.224449	 0.395017	 2.014677
-0.027532	 0.232202	 1.129555	 1.434028	 24.993410	-2.566044	-23.409260	-64.685700	 163.520200	 4.941576	-59.491040	 4.619754	-23.603960	 73.599240	 28.096710	-2.385833	 28.452750	 0.000004	 34.134610	-64.001060	-156.527800	-10.492220	-61.530950	-4.702580	 41.546130	 72.878240	-35.722360	 2.384659	 28.388700	-0.000001	-1.704615	 15.312440	-0.375232	-1.356913	 25.797550	 0.616050	-0.683835	-11.443370	 0.311094	-94.089320	 74.771840	 163.805800	 17.879070	 16.420910	-51.749560	-1.882574	 8.742052	-34.671220	-30.414250	-29.911190	-27.644110	-2.027600	 6.559038	 9.033609	-5.188889	 0.308190	 3.541030	-5.234859	 0.342567	 0.430617	-1.709815	-14.856090	-0.994727	 0.290779	 4.783847	-2.607079	 93.826850	 68.939370	-165.353000	-13.972230	 15.494310	 53.021600	-7.689614	-0.029376	 37.619370	 9.627867	-27.548800	 19.507500	 1.803333	 3.979147	-15.098590	 4.898592	 3.004813	-9.310344	 5.224449	 0.395017	 2.014677
-0.023623	 0.226599	 1.154616	 1.822295	 23.652260	-2.150425	-22.397540	-60.591830	 165.339400	 4.596586	-55.304990	 4.125169	-20.746900	 72.164370	 24.623780	-2.385833	 28.452750	 0.000004	 29.671760	-60.199330	-160.780800	-8.786813	-57.368760	-3.067110	 37.168800	 71.685520	-31.436760	 2.384659	 28.388700	-0.000001	-1.778454	 13.944290	-0.557952	-1.080545	 25.498040	 0.155002	-0.767512	-12.835590	 0.115146	-94.451070	 73.616430	 165.054400	 20.112870	 17.141190	-49.845500	-0.819169	 8.962753	-37.868500	-31.201150	-33.187410	-28.749360	-2.027600	 6.559038	 9.033609	-5.188889	 0.308190	 3.541030	-5.234859	 0.342567	 0.430617	-1.813231	-15.296110	-0.964283	 0.364577	 5.437044	-2.419233	 93.987270	 67.175630	-166.616100	-15.540010	 15.685400	 49.891880	-7.917182	-0.239070	 41.987140	 10.251950	-30.745270	 20.240560	 1.803333	 3.979147	-15.098590	 4.898592	 3.004813	-9.310344	 5.224449	 0.395017	 2.014677
-0.020362	 0.219230	 1.181786	 2.218416	 22.324130	-1.736846	-21.601990	-56.054710	 166.885200	 4.170636	-50.434640	 3.539315	-18.158750	 70.444210	 21.457590	-2.385833	 28.452750	 0.000004	 25.891740	-55.899120	-164.371700	-7.310538	-52.393080	-1.714867	 32.508700	 70.237420	-26.845670	 2.384659	 28.388700	-0.000001	-1.715693	 12.138970	-0.605227	-0.631240	 24.927850	-0.399448	-0.852301	-14.004960	-0.110974	-94.760330	 72.218360	 166.367000	 22.237020	 17.504040	-48.054370	 0.303137	 9.106333	-41.315210	-31.908580	-36.812860	-29.135780	-2.027600	 6.559038	 9.033609	-5.188889	 0.308190	 3.541030	-5.234859	 0.342567	 0.430617	-1.846086	-15.148480	-0.737784	 0.402401	 5.674621	-2.403344	 93.962760	 65.396000	-168.031800	-16.862940	 15.636770	 46.523550	-8.143124	-0.523374	 46.793520	 11.039930	-34.346550	 20.842700	 1.803333	 3.979147	-15.098590	 4.898592	 3.004813	-9.310344	 5.224449	 0.395017	 2.014677
